<svg xmlns="http://www.w3.org/2000/svg" version="1.1" xmlns:xlink="http://www.w3.org/1999/xlink" viewBox="0 0 200 200"><rect width="200" height="200" fill="url('#gradient')"></rect><defs><linearGradient id="gradient" gradientTransform="rotate(45 0.5 0.5)"><stop offset="0%" stop-color="#328c78"></stop><stop offset="100%" stop-color="#28819e"></stop></linearGradient></defs><g><g fill="#f6ebbc" transform="matrix(2.1140038995297625,0,0,2.1140038995297625,9.564593196287802,115.03482515569372)" stroke="#dba545" stroke-width="0.2"><path d="M10.11-14.22L12.09-5.30L13.72-14.22L17.12-14.22L14.10 0L10.55 0L8.64-8.11L6.78 0L3.23 0L0.21-14.22L3.61-14.22L5.24-5.30L7.20-14.22L10.11-14.22ZM26.94 0L26.11-2.66L21.42-2.66L20.60 0L16.93 0L22.15-14.22L25.37-14.22L30.63 0L26.94 0ZM23.76-10.23L22.24-5.30L25.29-5.30L23.76-10.23ZM43.54-14.22L43.54 0L40.13 0L35.09-8.85L35.09 0L31.66 0L31.66-14.22L35.09-14.22L40.12-5.37L40.12-14.22L43.54-14.22ZM56.58-14.22L56.58-11.57L52.31-11.57L52.31 0L48.89 0L48.89-11.57L44.70-11.57L44.70-14.22L56.58-14.22ZM65.12-14.22L67.94-3.87L70.77-14.22L74.60-14.22L69.81 0L66.06 0L61.32-14.22L65.12-14.22ZM78.44-6.04L78.44-8.49L79.99-8.49Q81.84-8.49 81.84-10.29L81.84-10.29Q81.84-11.00 81.40-11.44Q80.96-11.88 80.16-11.88L80.16-11.88Q79.50-11.88 79.02-11.50Q78.54-11.12 78.54-10.56L78.54-10.56L75.24-10.56Q75.24-11.68 75.87-12.56Q76.49-13.44 77.60-13.93Q78.71-14.42 80.04-14.42L80.04-14.42Q82.41-14.42 83.77-13.34Q85.13-12.26 85.13-10.36L85.13-10.36Q85.13-9.44 84.57-8.63Q84.00-7.81 82.93-7.30L82.93-7.30Q84.06-6.89 84.71-6.06Q85.35-5.22 85.35-3.99L85.35-3.99Q85.35-2.09 83.89-0.95Q82.42 0.20 80.04 0.20L80.04 0.20Q78.64 0.20 77.45-0.34Q76.25-0.87 75.63-1.81Q75.02-2.75 75.02-3.96L75.02-3.96L78.33-3.96Q78.33-3.30 78.86-2.82Q79.38-2.34 80.16-2.34L80.16-2.34Q81.03-2.34 81.54-2.83Q82.06-3.31 82.06-4.06L82.06-4.06Q82.06-5.14 81.52-5.59Q80.99-6.04 80.04-6.04L80.04-6.04L78.44-6.04Z"></path></g></g></svg>